<svg width="82" height="70" viewBox="0 0 82 70" fill="none" xmlns="http://www.w3.org/2000/svg">
<path fill-rule="evenodd" clip-rule="evenodd" d="M19.9175 16.1832C19.6888 16.2923 19.4247 16.5382 19.3257 16.7342C19.2752 16.8342 18.2206 19.601 17.3591 21.8936C17.3044 22.0393 17.1167 22.5307 16.942 22.9858C16.7673 23.4409 16.2924 24.692 15.8868 25.766C15.4811 26.84 15.1139 27.8089 15.0708 27.9193C14.8598 28.4595 14.5799 29.2042 14.4931 29.4563C14.4398 29.611 14.3824 29.7674 14.3656 29.8038C14.3285 29.8841 14.3607 29.7996 13.1655 32.948C12.6335 34.3497 12.1234 35.6975 12.032 35.9433C11.9407 36.189 11.8083 36.539 11.7379 36.721C11.5674 37.1614 10.844 39.0653 9.80106 41.818C9.33208 43.0558 8.64564 44.8654 8.27563 45.8393C7.90561 46.8131 7.5149 47.8482 7.40738 48.1395C7.29986 48.4307 7.15524 48.8217 7.08604 49.0083L6.96015 49.3475H10.3323H13.7044L13.7703 49.1572C13.8065 49.0526 13.9473 48.6393 14.0832 48.2388C14.2191 47.8383 14.3687 47.4064 14.4157 47.279C14.49 47.0778 14.8627 45.9994 15.2908 44.7471C15.3624 44.5377 15.4403 44.3218 15.464 44.2671C15.4877 44.2125 15.5171 44.1343 15.5294 44.0933L15.5516 44.0188L21.6027 44.0271L27.6538 44.0355L27.7342 44.2341C27.7785 44.3433 27.8613 44.5741 27.9182 44.7471C28.0269 45.0771 28.592 46.724 28.7814 47.2624C28.8422 47.4354 28.9809 47.83 29.0896 48.1395C29.1983 48.4489 29.338 48.8436 29.4001 49.0166L29.513 49.331L30.0741 49.34L30.6352 49.3491V41.9385V34.5278L30.1906 33.3573C29.9461 32.7135 29.645 31.9261 29.5215 31.6076C29.3981 31.289 29.183 30.7231 29.0435 30.3499C28.9041 29.9767 28.7623 29.6089 28.7286 29.5326C28.6948 29.4562 28.6672 29.3852 28.6672 29.3749C28.6672 29.3384 26.0159 22.358 25.9139 22.126C25.8817 22.0528 25.8154 21.8812 25.7666 21.7447C25.7177 21.6082 25.2176 20.2793 24.6551 18.7916L23.6324 16.0868L21.8776 16.086L20.1228 16.0852L19.9175 16.1832ZM31.5754 26.188C31.5634 31.7445 31.5536 39.2286 31.5536 42.8192V49.3475H42.4268H53.3V46.3357V43.3239L45.6822 43.3237C41.4924 43.3236 37.9205 43.3139 37.7446 43.3022L37.4248 43.2808V29.683V16.0851H34.511H31.5973L31.5754 26.188ZM21.0347 28.2405C20.7244 29.1367 19.9816 31.2774 19.3841 32.9976C17.7494 37.7035 17.6793 37.9071 17.6907 37.9187C17.6966 37.9246 19.4641 37.9256 21.6187 37.9209L25.536 37.9125L25.3117 37.2671C25.1883 36.9122 25.0377 36.4803 24.977 36.3073C24.4139 34.7021 22.1218 28.0827 21.9687 27.6194C21.8604 27.2917 21.7606 27.0088 21.747 26.9906C21.7334 26.9723 21.697 26.8793 21.6661 26.7837C21.6352 26.6881 21.6074 26.6102 21.6044 26.6105C21.6013 26.6107 21.3449 27.3443 21.0347 28.2405ZM38.2568 52.9249C38.0796 52.9767 37.841 53.1632 37.7401 53.3287C37.6173 53.5301 37.5816 53.9197 37.667 54.1261C37.6961 54.1964 37.72 54.2588 37.72 54.2646C37.72 54.2705 37.6499 54.2799 37.5642 54.2854L37.4084 54.2955L37.3988 54.5525L37.3892 54.8094L38.4812 54.8007L39.5732 54.792V54.5437V54.2955L39.0037 54.279L38.4342 54.2624L38.3397 54.1481C38.1736 53.9471 38.1833 53.6848 38.3632 53.5143C38.4346 53.4466 38.4796 53.435 38.6712 53.435C38.8716 53.435 38.9116 53.4465 39.0478 53.5434L39.2001 53.6517L39.2883 53.5877C39.3367 53.5526 39.4183 53.4792 39.4695 53.4248C39.5477 53.3418 39.5568 53.3149 39.5265 53.2577C39.4732 53.1571 39.2882 53.0252 39.0992 52.9526C38.9187 52.8835 38.4511 52.8681 38.2568 52.9249ZM15.5035 53.2088C15.4914 53.221 15.4812 54.3492 15.4808 55.7159C15.4804 57.0827 15.4667 58.259 15.4503 58.3301C15.3953 58.5694 15.3405 58.5956 14.8494 58.6172C14.1932 58.646 13.8793 58.5675 13.742 58.3403C13.6813 58.2398 13.6778 58.1666 13.6777 56.9913C13.6776 56.0689 13.6675 55.7382 13.6382 55.7088C13.594 55.6641 12.7054 55.6519 12.6383 55.695C12.6097 55.7134 12.5967 56.0648 12.5891 57.0266C12.5798 58.1994 12.5729 58.3443 12.5211 58.4399C12.4893 58.4986 12.4347 58.562 12.3997 58.5809C12.3021 58.6336 10.9095 58.6279 10.7989 58.5744C10.6284 58.4919 10.6282 58.4904 10.6272 56.7281C10.6266 55.8271 10.6142 55.0708 10.5996 55.0476C10.5795 55.0156 10.4499 55.0075 10.0671 55.0145L9.56119 55.0236L9.55155 55.2636L9.5419 55.5036H8.9254C8.4188 55.5036 8.26372 55.5152 8.05554 55.5689C7.7159 55.6566 7.44179 55.8097 7.25525 56.016C7.03671 56.2577 6.92443 56.4868 6.85276 56.8372C6.70021 57.583 6.83784 58.2731 7.22422 58.7001C7.3653 58.8559 7.45166 58.9108 7.87744 59.1151C8.00217 59.1749 8.39315 59.2178 8.67225 59.2023C8.9865 59.1848 9.27452 59.1022 9.44255 58.9815C9.49533 58.9436 9.54623 58.9125 9.55565 58.9125C9.56506 58.9125 9.60891 58.9907 9.65306 59.0863C9.7492 59.2944 9.83254 59.3869 10.0025 59.4744C10.2317 59.5924 10.5335 59.6142 11.7365 59.5995C13.0687 59.5833 13.1359 59.5716 13.3855 59.312L13.5362 59.1552L13.6107 59.265C13.6898 59.3814 13.9431 59.5229 14.1368 59.559C14.1999 59.5707 14.5346 59.5882 14.8804 59.5978C15.7762 59.6227 16.0642 59.5609 16.2966 59.2939C16.5606 58.9904 16.564 58.9482 16.564 55.909C16.564 54.4693 16.555 53.2679 16.5441 53.2391C16.5271 53.1945 16.4499 53.1868 16.0248 53.1868C15.7501 53.1868 15.5155 53.1967 15.5035 53.2088ZM27.9053 53.1942C27.9011 53.1992 27.8901 54.3832 27.8807 55.8254L27.8636 58.4474L27.7889 58.5228C27.7166 58.5957 27.6947 58.5981 27.1165 58.5981C26.444 58.5981 26.3288 58.5676 26.1826 58.3504C26.1127 58.2466 26.1087 58.2081 26.1076 57.6251C26.107 57.2462 26.0887 56.9087 26.0602 56.7474C25.9459 56.1 25.5676 55.7055 24.9145 55.5527C24.7445 55.5129 24.5111 55.5043 23.789 55.5113L22.878 55.5201V55.9835V56.4468L23.6324 56.4671C24.0477 56.4783 24.4401 56.5045 24.5055 56.5254C24.6927 56.5853 24.8392 56.7019 24.928 56.8618C25.0074 57.0049 25.01 57.029 25.01 57.6383C25.01 58.1776 25.0017 58.2824 24.9519 58.3744C24.8308 58.5981 24.8367 58.597 23.6188 58.6081C22.8998 58.6146 22.5053 58.6303 22.4775 58.6535C22.4185 58.7029 22.4173 59.5203 22.4762 59.5629C22.4997 59.5799 23.1052 59.5851 23.8948 59.5752C25.2548 59.5582 25.2746 59.5569 25.4438 59.4797C25.5381 59.4367 25.675 59.3361 25.7479 59.2563C25.8209 59.1765 25.8857 59.1111 25.8919 59.1111C25.8981 59.1111 25.9414 59.1692 25.988 59.2403C26.045 59.3271 26.1349 59.4002 26.2629 59.4637L26.4532 59.5579H27.4044C28.3165 59.5579 28.361 59.555 28.4868 59.4865C28.6376 59.4044 28.7693 59.2706 28.84 59.1277C28.9605 58.8841 28.9661 58.729 28.9559 55.9338L28.946 53.2033L28.4294 53.1942C28.1452 53.1892 27.9094 53.1892 27.9053 53.1942ZM30.1634 53.2383C30.1523 53.2676 30.1432 54.6981 30.1432 56.4173V59.543L30.2273 59.5753C30.3278 59.6138 31.1259 59.6179 31.1848 59.5802C31.2174 59.5593 31.2242 58.8969 31.2176 56.3786L31.2092 53.2033L30.6964 53.1942C30.2504 53.1863 30.181 53.1921 30.1634 53.2383ZM40.3331 53.2088C40.321 53.221 40.3112 54.6566 40.3112 56.3992C40.3112 59.2576 40.3163 59.5693 40.3631 59.5875C40.4638 59.6265 41.3128 59.6097 41.3542 59.5679C41.3843 59.5375 41.3936 58.791 41.3936 56.4098C41.3936 54.6947 41.3846 53.2679 41.3737 53.2391C41.3567 53.1945 41.2795 53.1868 40.8544 53.1868C40.5797 53.1868 40.3451 53.1967 40.3331 53.2088ZM51.1554 53.2383C51.1443 53.2676 51.1352 54.4304 51.1352 55.8223C51.1352 58.5823 51.14 58.5105 50.9511 58.583C50.9057 58.6004 50.637 58.6145 50.3541 58.6143C49.8781 58.614 49.8267 58.608 49.668 58.5334C49.4103 58.4123 49.3767 58.3347 49.3555 57.811C49.3212 56.9691 49.1443 56.4643 48.744 56.0662C48.3797 55.7041 47.9746 55.5449 47.3355 55.5128C46.8922 55.4905 46.5822 55.5376 46.2858 55.6724C45.9161 55.8405 45.4411 56.2288 45.4659 56.3425C45.4794 56.404 46.013 56.9598 46.0586 56.9598C46.076 56.9598 46.1572 56.9004 46.239 56.8278C46.7866 56.3414 47.6344 56.3609 47.98 56.8677C48.1543 57.1233 48.1996 57.3199 48.1996 57.8203C48.1996 58.3102 48.1739 58.4054 48.0086 58.5289C47.9179 58.5967 47.8814 58.5983 46.2275 58.6076L44.539 58.6169L44.3773 58.5281C44.0884 58.3695 44.1018 58.4403 44.0832 56.9764L44.0668 55.6856H43.542H43.0172L42.9996 57.8203C42.9875 59.2799 42.9702 59.9887 42.9449 60.0612C42.8287 60.3938 42.6731 60.5009 42.3051 60.5017C42.1736 60.502 42.0471 60.5143 42.024 60.5291C41.9925 60.5493 41.9843 60.6703 41.9912 61.0167L42.0004 61.4776L42.3115 61.4872C42.9155 61.5058 43.3372 61.3787 43.6192 61.0928C43.895 60.8132 44.0399 60.3796 44.0731 59.7345L44.0929 59.3484L44.2196 59.433C44.4463 59.5844 44.7265 59.6063 46.4284 59.6059C48.4552 59.6054 48.6412 59.58 48.9588 59.2595L49.1297 59.0871L49.2309 59.2293C49.4472 59.5331 49.859 59.626 50.8702 59.5991C51.5687 59.5804 51.7246 59.5424 51.9233 59.3419C51.9908 59.2738 52.081 59.1306 52.1236 59.0239L52.2012 58.8298V56.0166V53.2033L51.6884 53.1942C51.2424 53.1863 51.173 53.1921 51.1554 53.2383ZM53.4386 53.2257C53.3756 53.2892 53.3805 59.4855 53.4436 59.5492C53.4954 59.6015 54.3683 59.6298 54.4399 59.5815C54.4726 59.5596 54.4794 58.8963 54.4727 56.3786L54.4644 53.2033L53.9716 53.1942C53.616 53.1877 53.4675 53.1964 53.4386 53.2257ZM62.5972 53.2287C62.588 53.2527 62.5847 54.5228 62.5897 56.0511L62.5988 58.8298L62.6764 59.0239C62.719 59.1306 62.8092 59.2738 62.8767 59.3419C63.0972 59.5644 63.1668 59.5745 64.4854 59.5745C65.7557 59.5745 65.8571 59.5629 66.0793 59.3918C66.1429 59.3429 66.2106 59.2682 66.2297 59.2258C66.2642 59.1494 66.266 59.1501 66.4195 59.3092C66.6806 59.5797 66.6516 59.5764 68.6963 59.5749C70.1416 59.5738 70.5026 59.5646 70.6746 59.5244C71.293 59.3797 71.6961 58.9605 71.846 58.3065C71.9164 57.9987 71.9158 57.2173 71.8447 56.8894C71.7683 56.5368 71.6047 56.2104 71.4018 56.0057C70.8734 55.4724 69.7984 55.3405 69.0285 55.7144C68.5989 55.9231 68.3342 56.239 68.1675 56.7421C68.0849 56.9914 68.0789 57.0485 68.0782 57.5887C68.0775 58.1283 68.0833 58.1845 68.1625 58.4112L68.2475 58.6545L67.6043 58.6399C66.9178 58.6243 66.7507 58.5913 66.5901 58.4398C66.4376 58.2959 66.4371 58.2916 66.42 56.9598L66.4036 55.6856H65.8952H65.3868L65.3679 56.9929C65.3477 58.3879 65.3349 58.4945 65.1785 58.5789C65.1381 58.6007 64.881 58.6147 64.5181 58.6147C63.8953 58.6147 63.7738 58.5912 63.7098 58.4587C63.694 58.4261 63.6738 57.2304 63.6648 55.8014L63.6484 53.2033L63.1311 53.1942C62.7266 53.1871 62.6101 53.1946 62.5972 53.2287ZM7.68995 53.3943C7.68077 53.4184 7.67739 53.646 7.68241 53.8999L7.69159 54.3617H8.16719H8.64279V53.8653V53.3688L8.1747 53.3596C7.80974 53.3525 7.70294 53.3601 7.68995 53.3943ZM8.90355 53.3943C8.89437 53.4184 8.89099 53.646 8.89601 53.8999L8.90519 54.3617H9.38079H9.85639V53.8653V53.3688L9.3883 53.3596C9.02334 53.3525 8.91654 53.3601 8.90355 53.3943ZM43.0418 53.7382C43.0116 53.7505 43.0008 53.8839 43.0008 54.2451C43.0008 54.6615 43.0086 54.7383 43.0527 54.7553C43.1537 54.7945 44.0352 54.7775 44.0766 54.7357C44.1034 54.7087 44.116 54.5518 44.116 54.2459C44.116 53.9399 44.1034 53.783 44.0766 53.756C44.0374 53.7165 43.1334 53.7009 43.0418 53.7382ZM58.5545 53.756C58.4998 53.8113 58.4998 54.6805 58.5545 54.7357C58.5812 54.7626 58.7343 54.7754 59.029 54.7754C59.4256 54.7754 59.4671 54.7698 59.498 54.7114C59.5167 54.6762 59.532 54.4667 59.532 54.2459C59.532 54.025 59.5167 53.8155 59.498 53.7803C59.4671 53.722 59.4256 53.7163 59.029 53.7163C58.7343 53.7163 58.5812 53.7291 58.5545 53.756ZM59.8026 53.7382C59.7724 53.7505 59.7616 53.8839 59.7616 54.2448C59.7616 54.7248 59.7631 54.735 59.8354 54.7546C59.9537 54.7866 60.626 54.7774 60.68 54.7431C60.7183 54.7187 60.7315 54.6221 60.7398 54.305C60.7458 54.073 60.7356 53.8593 60.716 53.8073L60.6816 53.7163L60.2626 53.7189C60.0322 53.7204 59.8252 53.7291 59.8026 53.7382ZM65.3769 53.756C65.3222 53.8113 65.3222 54.6805 65.3769 54.7357C65.4184 54.7775 66.2999 54.7945 66.4009 54.7553C66.445 54.7383 66.4528 54.6616 66.4528 54.2459C66.4528 53.8302 66.445 53.7535 66.4009 53.7364C66.2999 53.6973 65.4184 53.7142 65.3769 53.756ZM68.9347 53.7384C68.9226 53.7505 68.9128 53.9798 68.9128 54.2479C68.9128 54.6618 68.9206 54.7383 68.9647 54.7553C68.9932 54.7664 69.1913 54.7754 69.4048 54.7754C69.6183 54.7754 69.8164 54.7664 69.8449 54.7553C69.889 54.7383 69.8968 54.6616 69.8968 54.2459C69.8968 53.8302 69.889 53.7535 69.8449 53.7364C69.7742 53.709 68.962 53.7108 68.9347 53.7384ZM70.1408 53.7592C70.1318 53.7828 70.1286 54.0174 70.1336 54.2805L70.1428 54.7589L70.5811 54.7681C70.8762 54.7744 71.0342 54.7649 71.0649 54.7392C71.1254 54.6885 71.1309 53.8165 71.071 53.756C71.0132 53.6977 70.1631 53.7006 70.1408 53.7592ZM18.965 55.5705C18.2999 55.7463 17.8616 56.204 17.6756 56.9168C17.5792 57.2861 17.5791 58.0273 17.6753 58.3937C17.8376 59.0115 18.1709 59.3632 18.747 59.5243C18.8873 59.5636 19.1432 59.5842 19.6596 59.5979L20.3772 59.6169L20.3571 59.8107C20.3208 60.1611 20.1749 60.3961 19.9464 60.4722C19.8804 60.4942 19.5103 60.5196 19.0908 60.5309L18.3516 60.5508V61.0142V61.4776H19.27C20.1261 61.4776 20.204 61.4726 20.418 61.4045C20.8187 61.2769 21.0903 61.0584 21.2528 60.7329C21.4293 60.3795 21.4348 60.316 21.4348 58.6312C21.4348 56.8912 21.4303 56.8483 21.2021 56.391C20.9108 55.8074 20.3306 55.5008 19.5259 55.5054C19.3201 55.5065 19.1183 55.53 18.965 55.5705ZM59.0402 55.5564C58.37 55.7065 57.9074 56.1726 57.7458 56.8605C57.6323 57.344 57.6482 58.0342 57.7828 58.4657C57.9658 59.0526 58.3646 59.4344 58.9567 59.5895C59.1891 59.6503 59.9317 59.6593 60.1946 59.6044C60.4834 59.544 60.8156 59.3642 61.0208 59.1572C61.3676 58.8073 61.5328 58.3049 61.5328 57.6003C61.5328 57.1249 61.4664 56.7864 61.306 56.4445C61.0841 55.9716 60.6927 55.6723 60.1466 55.5579C59.8563 55.4971 59.3083 55.4964 59.0402 55.5564ZM35.0738 55.7096C35.059 55.7328 35.0394 56.7124 35.0304 57.8865L35.014 60.0213L34.932 60.185C34.8097 60.4292 34.723 60.4783 34.3756 60.4997C34.2144 60.5096 34.0665 60.5338 34.047 60.5535C34.0242 60.5765 34.0149 60.7475 34.0208 61.0334L34.03 61.4776L34.3411 61.4872C34.8929 61.5042 35.3328 61.3877 35.61 61.1511C35.9114 60.8939 36.078 60.4323 36.1044 59.7813C36.1141 59.5402 36.1284 59.3428 36.136 59.3428C36.1437 59.3428 36.197 59.3786 36.2544 59.4223C36.418 59.5469 36.5735 59.5727 37.2936 59.5949C38.4822 59.6315 38.8061 59.5099 38.992 58.9571C39.0691 58.728 39.0956 55.7691 39.0211 55.7068C38.988 55.679 38.8282 55.67 38.4864 55.6764L37.9988 55.6856L37.9824 57.0536L37.966 58.4216L37.8648 58.5127C37.7695 58.5987 37.7406 58.6051 37.3564 58.6246C36.9764 58.6439 36.6439 58.6203 36.49 58.5631C36.3733 58.5197 36.2081 58.3788 36.1684 58.2887C36.1417 58.2286 36.1244 57.8055 36.113 56.9433L36.0964 55.6856L35.5986 55.6765C35.223 55.6696 35.0942 55.6777 35.0738 55.7096ZM8.54439 56.4863C8.29357 56.5445 8.21423 56.5798 8.09992 56.684C8.01064 56.7653 7.9555 56.8535 7.92139 56.9695C7.86304 57.1677 7.85644 57.5982 7.90932 57.7575C8.01306 58.0701 8.26067 58.227 8.65614 58.2308C9.07624 58.2347 9.30781 58.1027 9.4478 57.7792C9.51416 57.626 9.52491 57.5371 9.5381 57.0343L9.55306 56.4634L9.08152 56.4672C8.82217 56.4693 8.58047 56.4779 8.54439 56.4863ZM19.3356 56.4925C19.0396 56.5706 18.8259 56.7951 18.7234 57.1358C18.6294 57.4482 18.6469 57.995 18.7584 58.2274C18.9083 58.5398 19.1196 58.6147 19.852 58.6147H20.3743L20.3617 57.8948C20.3515 57.3073 20.3383 57.1445 20.29 57.0095C20.2079 56.7798 20.0884 56.6317 19.9269 56.5597C19.7669 56.4883 19.4767 56.4553 19.3356 56.4925ZM59.3427 56.5147C59.111 56.5776 58.9886 56.6756 58.8917 56.8757C58.7778 57.1111 58.734 57.3891 58.756 57.7377C58.7874 58.2364 58.8971 58.4562 59.1856 58.5986C59.3944 58.7016 59.7396 58.7259 59.9256 58.6506C60.2866 58.5044 60.423 58.2553 60.4441 57.7039C60.4683 57.071 60.3335 56.73 59.9901 56.5555C59.7864 56.4521 59.6133 56.4412 59.3427 56.5147ZM69.7521 56.5004C69.4795 56.5649 69.2818 56.7677 69.1893 57.0777C69.1183 57.3158 69.1277 57.8646 69.2072 58.1243C69.3197 58.492 69.5296 58.6293 69.9788 58.6293C70.3275 58.6292 70.5267 58.5557 70.6615 58.3774C70.8851 58.0815 70.9135 57.2873 70.7147 56.8905C70.5528 56.5675 70.1531 56.4055 69.7521 56.5004ZM46.781 60.3576C46.7507 60.3699 46.74 60.5042 46.74 60.8688V61.3633L47.2894 61.3542L47.8388 61.3452L47.8479 60.8863C47.8541 60.5763 47.8449 60.4127 47.8193 60.3816C47.7901 60.3461 47.6734 60.3363 47.3018 60.3383C47.0379 60.3397 46.8036 60.3484 46.781 60.3576ZM11.9868 60.4109C11.9776 60.435 11.9742 60.6625 11.9792 60.9165L11.9884 61.3783H12.464H12.9396V60.8818V60.3854L12.4715 60.3762C12.1065 60.369 11.9997 60.3766 11.9868 60.4109ZM13.2004 60.4109C13.1912 60.435 13.1878 60.6625 13.1928 60.9165L13.202 61.3783H13.6776H14.1532V60.8818V60.3854L13.6851 60.3762C13.3201 60.369 13.2133 60.3766 13.2004 60.4109Z" fill="#040404"/>
<path fill-rule="evenodd" clip-rule="evenodd" d="M40.2571 8.57336C40.0295 8.61893 39.6602 8.75976 39.4638 8.87589C39.3616 8.93633 39.1448 9.11985 38.9821 9.28368C38.643 9.62488 38.455 9.95505 38.3427 10.406C38.2782 10.6654 38.2776 10.8144 38.2776 26.5658V42.4637L54.1118 42.4553C69.0881 42.4473 69.9567 42.4437 70.1428 42.3888C70.251 42.3569 70.4651 42.268 70.6184 42.1913C71.0135 41.9936 71.4319 41.5715 71.6282 41.1726C71.7043 41.0178 71.7924 40.7944 71.8239 40.6761C71.8781 40.4728 71.8812 39.6171 71.8812 25.1206C71.8812 10.6348 71.878 9.76978 71.8241 9.59406C71.6971 9.18015 71.3447 8.8048 70.921 8.63207L70.7332 8.55555L55.5632 8.55082C47.2197 8.54824 40.3319 8.55836 40.2571 8.57336ZM46.904 10.2477C46.1446 10.3043 45.3764 10.5069 44.7064 10.8273C44.1158 11.1097 43.7112 11.4028 43.2435 11.8871C42.4775 12.6801 41.9911 13.6179 41.7267 14.8109C41.6695 15.0686 41.5502 15.8787 41.5255 16.1761C41.5251 16.1807 42.3851 16.1844 43.4365 16.1844H45.3482L45.3903 15.9444C45.5535 15.0143 45.9886 14.3434 46.6147 14.0564C46.9537 13.9011 47.0349 13.8855 47.5108 13.8848C48.0638 13.884 48.2239 13.9077 48.5264 14.0347C49.0692 14.2627 49.396 14.6934 49.4593 15.264C49.528 15.884 49.3601 16.5772 48.9759 17.26C48.7812 17.6062 48.7153 17.6987 47.8224 18.8818C47.685 19.0638 47.4269 19.4064 47.2487 19.643C46.7891 20.2536 46.2697 20.9431 45.9668 21.3447C44.7495 22.9589 44.4648 23.3415 44.4255 23.4161C44.4063 23.4525 44.2726 23.6386 44.1284 23.8298C43.9842 24.0209 43.7205 24.3709 43.5425 24.6076C43.3644 24.8442 43.106 25.1868 42.9683 25.3688C42.4919 25.9985 42.0922 26.5279 41.9565 26.7092L41.8203 26.8912L41.8201 28.5876L41.82 30.2839L47.6174 30.2755L53.4148 30.2671L53.4233 28.4882L53.4318 26.7092H50.066C47.2867 26.7092 46.7031 26.7016 46.7168 26.6654C46.726 26.6413 46.9093 26.3993 47.124 26.1276C47.5495 25.5893 47.939 25.0926 48.496 24.3777C48.6938 24.1239 48.9119 23.8558 48.9807 23.782C49.0495 23.7081 49.2266 23.4927 49.3743 23.3033C49.522 23.1138 49.724 22.8587 49.8232 22.7363C49.9224 22.6139 50.0626 22.4358 50.1348 22.3404C50.207 22.245 50.3472 22.0663 50.4464 21.9433C50.5456 21.8202 50.6858 21.6412 50.758 21.5456C50.8302 21.4499 50.9636 21.2806 51.0545 21.1693C51.1454 21.0579 51.2487 20.9276 51.2841 20.8795C51.3195 20.8315 51.4447 20.6677 51.5624 20.5155C52.4502 19.3672 53.0386 17.9617 53.2509 16.4823C53.3258 15.9602 53.3262 14.9048 53.2517 14.4137C53.0355 12.9896 52.3547 11.8784 51.2669 11.1743C51.0458 11.0312 50.6801 10.8407 50.4956 10.7726C50.4054 10.7393 50.3168 10.7018 50.2988 10.6894C50.2808 10.6769 50.2365 10.6582 50.2004 10.6477C50.1643 10.6371 50.0536 10.6045 49.9544 10.5751C49.5008 10.4407 49.2177 10.3799 48.6478 10.2945C48.3942 10.2565 47.2111 10.2247 46.904 10.2477ZM61.2934 10.5827C61.2449 10.7039 60.7198 11.8669 60.5649 12.1962C60.5221 12.2872 60.4438 12.4585 60.3909 12.5768C60.338 12.6951 60.2543 12.8813 60.2049 12.9905C60.1554 13.0998 60.0409 13.3529 59.9504 13.5532C59.8599 13.7534 59.7214 14.0558 59.6425 14.225C59.5637 14.3943 59.4992 14.538 59.4992 14.5443C59.4992 14.5507 59.418 14.7295 59.3188 14.9418C59.2196 15.1541 59.1384 15.3331 59.1384 15.3397C59.1384 15.3462 59.074 15.4906 58.9953 15.6604C58.7659 16.1554 58.6751 16.3535 58.5808 16.565C58.5321 16.6742 58.4546 16.8455 58.4084 16.9456C58.316 17.1462 58.0579 17.7153 57.7936 18.3012C57.6995 18.5098 57.5741 18.7854 57.5149 18.9135C57.4557 19.0417 57.3303 19.3178 57.2361 19.5272C56.9971 20.0586 56.7232 20.6628 56.6059 20.9173C56.5513 21.0356 56.3991 21.3707 56.2677 21.6619C56.1362 21.9532 55.9743 22.3106 55.9079 22.4563C55.6552 23.0102 55.6288 23.0714 55.6288 23.1032C55.6288 23.1211 55.5624 23.2792 55.4812 23.4545L55.3336 23.7733V25.5059V27.2385L59.2942 27.2469L63.2548 27.2553V28.7695V30.2837H65.0998H66.9448V28.7612V27.2388H67.7156H68.4864V25.4515V23.6643H67.7119H66.9374L66.9496 21.1324L66.9619 18.6005H65.0971H63.2323L63.2436 21.1241L63.2548 23.6477L61.459 23.6563C60.4713 23.661 59.6632 23.6591 59.6632 23.6521C59.6632 23.6384 59.7824 23.3627 59.9156 23.0686C59.9609 22.9684 60.0937 22.6706 60.2107 22.4066C60.3277 22.1427 60.4443 21.9032 60.4697 21.8744C60.4952 21.8457 60.516 21.813 60.516 21.8018C60.516 21.7905 60.5954 21.6056 60.6925 21.3907C60.874 20.9889 60.9429 20.8351 61.0826 20.5201C61.1269 20.42 61.2004 20.2561 61.2457 20.156C61.2911 20.0559 61.4644 19.6687 61.6309 19.2955C61.7973 18.9223 61.967 18.5425 62.0079 18.4515C62.0488 18.3605 62.1523 18.1297 62.238 17.9385C62.3237 17.7474 62.4273 17.5165 62.4681 17.4255C62.509 17.3345 62.6787 16.9547 62.8451 16.5816C63.0116 16.2084 63.1849 15.8212 63.2303 15.721C63.2756 15.6209 63.3491 15.4571 63.3935 15.357C63.5869 14.9205 63.9194 14.1783 64.0087 13.9834C64.0505 13.8924 64.2204 13.5126 64.3863 13.1395C64.5523 12.7663 64.7253 12.3791 64.7708 12.279C64.8163 12.1788 64.8795 12.0373 64.9112 11.9645C64.9429 11.8917 65.0062 11.7502 65.052 11.6501C65.1964 11.3341 65.5672 10.4863 65.5672 10.4722C65.5672 10.4647 64.6168 10.4586 63.4552 10.4586H61.3431L61.2934 10.5827ZM21.0986 16.0768C21.5632 16.082 22.3233 16.082 22.7878 16.0768C23.2524 16.0716 22.8723 16.0674 21.9432 16.0674C21.0142 16.0674 20.6341 16.0716 21.0986 16.0768ZM31.5697 22.8203C31.5697 26.5338 31.5735 28.048 31.5782 26.1853C31.5829 24.3226 31.5829 21.2843 31.5782 19.4335C31.5735 17.5828 31.5697 19.1068 31.5697 22.8203ZM65.5672 31.9718C65.1719 32.0263 64.8964 32.1081 64.5658 32.269C63.8181 32.6328 63.4352 33.2944 63.4352 34.2222C63.4352 34.5808 63.5084 34.9666 63.6228 35.2107C63.6685 35.3084 63.8021 35.4912 63.9197 35.6169C64.2786 36.0008 64.6968 36.1652 65.7968 36.355C66.86 36.5385 67.1492 36.6868 67.2347 37.0924C67.3244 37.5184 67.0743 37.8898 66.5952 38.0422C65.8086 38.2924 64.6949 38.0912 63.9147 37.558C63.7639 37.455 63.7157 37.4359 63.6938 37.4708C63.5084 37.7659 63.1047 38.5367 63.1177 38.5708C63.171 38.711 63.9606 39.1298 64.4298 39.2667C65.0512 39.4481 65.383 39.4948 65.896 39.4729C66.9529 39.4279 67.5892 39.2074 68.0656 38.7209C68.5314 38.2453 68.7206 37.4852 68.5704 36.6931C68.5043 36.3445 68.3814 36.105 68.1317 35.8378C67.7659 35.4465 67.3685 35.2932 65.8882 34.9722C65.2033 34.8237 64.8923 34.615 64.8152 34.2522C64.7241 33.8235 64.974 33.4795 65.4765 33.3417C66.1198 33.1653 66.9548 33.3141 67.6345 33.7263L67.8982 33.8862L68.1896 33.2986L68.4811 32.7111L68.3444 32.6202C67.9732 32.3736 67.3682 32.1273 66.8628 32.0172C66.5848 31.9566 65.8605 31.9312 65.5672 31.9718ZM54.1654 32.0626C54.1748 32.0945 54.4128 33.1333 54.6944 34.3712C54.976 35.609 55.2343 36.7409 55.2684 36.8865C55.3254 37.13 55.5573 38.1474 55.7472 38.9876C55.7903 39.1784 55.8256 39.3459 55.8256 39.3599C55.8256 39.3739 56.1203 39.3853 56.4803 39.3853H57.1351L57.1713 39.2447C57.1913 39.1673 57.2573 38.9178 57.318 38.6903C57.3788 38.4628 57.659 37.3979 57.9407 36.3239C58.5057 34.1705 58.4775 34.2725 58.5001 34.2952C58.5193 34.3146 58.5108 34.2819 58.9738 36.1253C59.3257 37.527 59.6979 39.0023 59.7649 39.2612L59.7969 39.3853H60.4444H61.0919L61.4004 38.0366C61.5701 37.2949 61.7339 36.5762 61.7643 36.4397C61.9042 35.8122 62.7506 32.1141 62.7662 32.0626C62.7824 32.0087 62.7348 32.0047 62.0768 32.0047C61.3708 32.0047 61.3701 32.0048 61.3528 32.0792C61.3327 32.1663 61.2665 32.5122 60.7939 35C60.6002 36.0194 60.4326 36.8637 60.4215 36.8764C60.4103 36.889 60.0895 35.8018 59.7085 34.4603L59.0158 32.0213H58.465H57.9142L57.58 33.1962C57.3962 33.8424 57.0863 34.9334 56.8915 35.6206C56.6966 36.3078 56.5263 36.87 56.513 36.87C56.4998 36.87 56.4792 36.8141 56.4673 36.7459C56.4434 36.6082 56.1796 35.2197 56.0067 34.3215C55.9454 34.0029 55.827 33.3849 55.7435 32.948C55.6601 32.5111 55.5838 32.1201 55.574 32.0792C55.5561 32.0048 55.555 32.0047 54.8522 32.0047C54.1973 32.0047 54.1496 32.0088 54.1654 32.0626ZM41.5248 35.7116V39.3853H42.1808H42.8368V36.7321C42.8368 35.2728 42.8462 34.0883 42.8577 34.0999C42.8767 34.1191 44.2625 36.952 45.1002 38.6842L45.4392 39.3853H46.2864H47.1336V35.7116V32.0378H46.4776H45.8216V34.7253C45.8216 36.2034 45.8093 37.3986 45.7943 37.3813C45.7792 37.364 45.4741 36.7392 45.1163 35.9929C44.7586 35.2466 44.2754 34.2412 44.0426 33.7589C43.8099 33.2765 43.5297 32.6919 43.4199 32.4598L43.2203 32.0378H42.3726H41.5248V35.7116ZM48.7408 35.7116V39.3853H51.1844H53.628V38.7234V38.0615H51.8727H50.1173L50.1261 37.2258L50.1348 36.3901H51.6026H53.0704V35.7364V35.0827H51.5944H50.1184V34.2222V33.3617H51.8732H53.628V32.6998V32.0378H51.1844H48.7408V35.7116ZM41.716 43.3156C43.8507 43.3203 47.3341 43.3203 49.4568 43.3156C51.5796 43.3109 49.833 43.3071 45.5756 43.3071C41.3182 43.3071 39.5814 43.3109 41.716 43.3156ZM29.5158 49.3566C29.5299 49.3707 29.7911 49.3781 30.0965 49.3731L30.6516 49.3639L30.071 49.3474C29.7516 49.3384 29.5018 49.3425 29.5158 49.3566ZM8.63461 49.3723C9.5682 49.3772 11.0959 49.3772 12.0294 49.3723C12.963 49.3674 12.1991 49.3635 10.332 49.3635C8.46487 49.3635 7.70106 49.3674 8.63461 49.3723ZM37.0066 49.3723C39.9968 49.377 44.8897 49.377 47.8798 49.3723C50.87 49.3677 48.4235 49.3639 42.4432 49.3639C36.4629 49.3639 34.0165 49.3677 37.0066 49.3723ZM59.742 54.2459C59.742 54.528 59.747 54.6434 59.7532 54.5024C59.7593 54.3613 59.7593 54.1304 59.7532 53.9894C59.747 53.8483 59.742 53.9637 59.742 54.2459ZM23.2634 59.5992C23.5656 59.6047 24.0601 59.6047 24.3622 59.5992C24.6644 59.5938 24.4172 59.5893 23.8128 59.5893C23.2085 59.5893 22.9613 59.5938 23.2634 59.5992ZM27.0846 59.5991C27.2695 59.605 27.5721 59.605 27.757 59.5991C27.9419 59.5933 27.7906 59.5884 27.4208 59.5884C27.051 59.5884 26.8997 59.5933 27.0846 59.5991ZM63.9866 59.5992C64.2629 59.6048 64.7057 59.6047 64.9706 59.5992C65.2356 59.5937 65.0096 59.5891 64.4684 59.5891C63.9272 59.5892 63.7104 59.5937 63.9866 59.5992ZM67.9534 59.5992C68.3728 59.6045 69.0592 59.6045 69.4786 59.5992C69.898 59.594 69.5549 59.5897 68.716 59.5897C67.8771 59.5897 67.534 59.594 67.9534 59.5992ZM47.0434 61.3863C47.1832 61.3925 47.412 61.3925 47.5518 61.3863C47.6916 61.3801 47.5772 61.375 47.2976 61.375C47.018 61.375 46.9036 61.3801 47.0434 61.3863Z" fill="#DB232B"/>
</svg>
