<svg width="8" height="11" viewBox="0 0 8 11" fill="none" xmlns="http://www.w3.org/2000/svg">
<path d="M4.88093 1.95318L6.38401 2.9191M0.826029 9.85912L0.816156 9.71024C0.781244 9.18354 0.763786 8.92016 0.796909 8.66376C0.826302 8.43623 0.885134 8.21331 0.971968 8.00053C1.06981 7.76068 1.2153 7.53897 1.50627 7.0956L5.5432 0.943945C5.81391 0.531445 6.36982 0.413283 6.78491 0.68001C7.19996 0.946746 7.317 1.49737 7.04632 1.90986L2.93529 8.17437C2.67132 8.57664 2.53933 8.77776 2.37689 8.9499C2.23271 9.1027 2.071 9.23828 1.89508 9.35384C1.69688 9.48405 1.47495 9.57962 1.03113 9.77076L0.826029 9.85912Z" stroke="#A2A2A2" stroke-linecap="round" stroke-linejoin="round"/>
</svg>
